<?xml version="1.0" encoding="utf-8"?>
<svg xmlns="http://www.w3.org/2000/svg" x="0px" y="0px" viewBox="0 0 500 500" xml:space="preserve">
<linearGradient id="linear-gradient">
    <stop offset="0%" stop-color="#6ed6be"/>
    <stop offset="100%" stop-color="#57adc2"/>
</linearGradient>
<path fill="url(#linear-gradient)" d="M231.75,237.11c-18.69-3.93-37.38-7.83-56.05-11.8c-6.26-1.33-6.01-7.18-7.02-11.77c-0.74-3.38-0.47-7.06-0.26-10.58
	c0.2-3.32-1.01-4.3-4.13-4.36c-3.72-0.08-8.33,1.88-10.46-3.63c-0.07-0.19-2.18,0.21-3.19,0.67c-30.58,13.91-59.28,30.97-84.6,53.73
	c-17.19,15.45-31.92,33.03-42.68,53.77c-9.1,17.54-14.74,36.31-16.1,56.34c-0.36,5.26,1.88,7.02,6.28,6.31
	c10.92-1.76,22.01-2.97,32.64-5.92c19.89-5.51,39.48-5.5,58.94,1.11c5.26,1.79,10.38,4.66,14.9,8c11.62,8.58,22.88,7.62,34.3-0.05
	c7.65-5.14,8.42-4.48,9.49,4.94c0.81,7.14,2.53,14.2,4.22,21.2c1.47,6.09,5.49,7.61,11.47,6.87c10.34-1.28,20.85-2.76,31.17-2.16
	c9.5,0.55,18.89,3.57,28.22,5.94c1.46,0.37,2.38,3.02,3.55,4.61c-1.72,0.68-3.58,2.19-5.13,1.89c-8.1-1.53-16.09-3.74-24.19-5.27
	c-4.13-0.78-8.46-0.4-12.65-0.95c-9.33-1.24-14.78,2.77-17.57,12.03c-1.93,6.41-1.68,9.18,4.56,11.86
	c5.02,2.15,7.26,4.91,7.68,10.82c1.1,15.51,8.07,29.07,15.54,42.16c5.36,9.4,18.94,13.09,30.99,8.32
	c34.18-13.55,68.2-27.56,102.28-41.39c1.31-0.53,2.62-1.5,3.93-1.5c2.33-0.02,4.66,0.55,6.99,0.87c-1.43,1.87-2.49,4.55-4.36,5.46
	c-8.56,4.16-17.27,8.03-26.07,11.63c-23.58,9.64-47.14,19.31-70.88,28.51c-12.19,4.72-24.88,8.06-37.55,1.79
	c-3.81-1.88-7.83-4.84-10-8.44c-8.76-14.48-16.6-29.48-18.12-47.04c-0.12-1.42-1.68-3.1-2.99-3.96
	c-11.29-7.4-12.67-11.74-7.19-24.14c0.88-1.99,1.73-3.08-1.51-3.42c-9.21-0.97-13.49-5-15.94-14.78
	c-1.26-5.02-2.13-10.15-2.93-15.27c-0.45-2.89-1.4-3.47-3.89-1.98c-13.03,7.77-25.58,6.07-37.35-2.75
	c-10.06-7.54-21.71-9.11-33.47-11.26c-13.51-2.48-25.85,2.32-38.68,4.45c-11.65,1.93-23.41,3.67-35.18,4.19
	c-7.1,0.31-9.14-3.04-8.71-10.36c2.07-35.12,15.43-65.43,37.09-92.2c26.64-32.92,60.54-55.68,97.38-74.36
	c6.32-3.2,12.69-6.33,19.21-9.06c3.89-1.63,5.49-3.74,5.39-8.32c-0.51-23.39,6.18-44.01,23.9-59.51
	c5.29-4.63,11.84-7.71,17.78-11.54c1.13-0.73,2.12-1.69,3.17-2.54c-1.09-0.36-2.24-0.6-3.27-1.1c-5.98-2.89-12.43-5.1-17.77-8.95
	c-9.08-6.55-10.46-13.38-5.77-23.9c5.11-11.46,9.74-23.29,16.21-33.91c5.8-9.52,13.53-17.87,21.07-26.1
	c1.59-1.73,7.32-2.06,8.83-0.56c1.75,1.75,1.78,6.44,1.03,9.44c-1,3.99-3.75,4.43-6.67,1.01c-0.68-0.8-3.04-1.39-3.32-1.02
	c-5.18,6.86-10.17,13.86-15.15,20.87c-0.28,0.39-0.17,1.09-0.24,1.64c0.64-0.36,1.36-0.63,1.9-1.1c4.3-3.76,8.38-7.85,12.96-11.21
	c1.63-1.19,4.45-0.66,6.72-0.91c-0.72,2.09-1.03,4.5-2.27,6.18c-1.67,2.29-4.5,3.71-6.03,6.06c-2.19,3.36-5.84,9.77-5.07,10.47
	c5.46,5,0.34,13.16,5.74,17.78c1.6,1.37,1.81,1.77,4.34,0.61c5.56-2.56,4.84-6.63,5.54-11.3c0.84-5.62,3.27-11.01,5.26-16.4
	c1.18-3.19,2.67-6.21,7.15-4.42c0.79,0.32,2.66-1.29,3.58-2.4c4.34-5.27,7.81-11.6,12.93-15.83c8.12-6.71,17.28-12.08,26.05-17.91
	c1.15-0.76,2.69-1.41,3.99-1.31c3.47,0.27,6.9,0.97,10.34,1.5c-0.48,3.14-0.42,6.51-1.56,9.38c-1.66,4.2-4.32,7.96-6.2,12.08
	c-0.37,0.8,0.68,3.3,1.4,3.47c7.66,1.73,15.37,3.22,23.11,4.55c0.75,0.13,2.59-1.4,2.51-1.91c-1.01-6.21,2.47-9.08,7.24-11.42
	c14.9-7.33,33.59-1.55,37.06,20.08c0.49,3.03,1.67,5.95,2.53,8.92c0.97-2.72,1.99-5.43,2.91-8.17c0.53-1.57,0.6-3.39,1.41-4.75
	c1.39-2.32,3.41-6.28,4.8-6.12c2.81,0.32,6.19,2.33,7.86,4.74c3.3,4.74,5.95,10.19,1.28,15.92c-0.25,0.3-0.44,0.75-0.46,1.14
	c-0.19,4.23-0.34,8.47-0.5,12.7c4.28-1.62,8.73-2.91,12.71-5.11c0.97-0.54,0.94-4.3,0.34-6.24c-1.1-3.52-2.88-6.85-4.57-10.15
	c-1.84-3.6,0.42-6.25,2.91-5.45c6.73,2.18,13.47,4.98,19.4,8.85c2.4,1.57,3.53,6.5,3.74,9.99c0.24,4.01,0.94,5.36,5.1,6.15
	c2.38,0.45,4.12,4.72,6.07,7.33c1.48,1.98,2.42,4.68,4.31,5.96c4.19,2.85,6.65,6.4,5.17,11.44c-1.05,3.56,0.3,4.42,3.03,5.76
	c11.72,5.74,22.76,12.54,30.99,23.27c5.26,6.86,9.07,14.17,8.26,23.39c-0.49,5.58-0.05,11.26-0.64,16.83
	c-0.22,2.07-2.16,3.94-3.32,5.91c-1.53-1.61-3.67-2.94-4.5-4.88c-3.77-8.7-6.86-17.72-10.84-26.32c-1.84-3.97-4.92-7.43-7.84-10.74
	c-1.7-1.93-4.14-7.92-6.5-0.06c-0.23,0.77-3.19,1.14-4.77,0.9c-2.68-0.41-4.25-0.83-3.16,3.1c4,14.45,12.4,25.94,24.01,34.21
	c12.4,8.84,25.96,15.95,38.99,23.86c7.39,4.49,7.59,10.38,0.14,14.41c-4.58,2.48-12.13,2.64-13.88,6.19
	c-1.64,3.34,3.18,9.64,4.09,14.83c1.78,10.19-0.9,19.8-5.24,28.95c-0.35,0.74-0.69,1.76-1.31,2.05c-2.38,1.12-4.86,1.99-7.31,2.95
	c1.15,2.49,3.04,4.9,3.32,7.49c1.46,13.82,3.99,27.76,3.39,41.53c-1.02,23.38-10.49,43.34-28.48,58.32
	c-1.27,1.05-3.49,0.88-5.27,1.28c-0.17-2.04-1.18-4.55-0.38-6.03c7.58-14.05,8.9-29.11,7.51-44.71c-0.08-0.91-0.32-1.8-0.48-2.69
	c-0.14,0.79-0.37,1.58-0.42,2.38c-1.13,21.75-17.87,32.88-33.79,38.53c-1.23,0.44-3.08-0.98-4.64-1.53
	c0.77-1.63,1.13-3.96,2.39-4.78c5.97-3.83,12.7-6.55,18.2-10.94c10.25-8.17,12.34-19.79,10.76-32.49
	c-1.77-14.18-9.27-23.73-22.14-28.47c-8.22-3.02-13.59,0.18-16.29,8.81c-0.92,2.92-0.93,6.2-5.55,5.77
	c-0.89-0.08-2.46,3.65-3.15,5.81c-2.41,7.53-2.16,7.22-9.12,3.85c-4.88-2.37-10.35-3.41-15.34-5.58c-1.94-0.84-4.4-3.07-4.55-4.84
	c-0.14-1.71,2.05-4.23,3.83-5.4c8.68-5.68,17.61-10.95,26.37-16.5c6.83-4.33,7.46-11.54,1.37-16.94c-2.88-2.56-6.14-4.72-9.42-6.73
	c-12.89-7.93-15.28-12.83-12.94-28.2c2.19-14.36,4.81-28.66,6.72-43.05c0.41-3.06-0.63-7.07-2.42-9.54
	c-3.57-4.93-8.16-9.07-12.26-13.6c-1.7-1.88-3.2-5.56-4.83-5.59c-4.11-0.07-8.24,1.51-12.38,2.36c-1.89,0.39-3.8,0.62-5.71,0.92
	c0.06-2.13,0.01-4.28,0.21-6.39c0.15-1.63,1.17-4.5,0.85-4.65c-3.74-1.75-2.73,2.02-3.57,3.62c-2.03,3.86-11,6.76-17.06,4.28
	c-4.92-2.01-9.42-5.34-13.74-8.61c-2.21-1.67-3.24-5.43-5.61-0.01c-0.74,1.7-3.95,2.65-6.2,3.18c-7.21,1.69-14.46,3.96-21.76,4.26
	c-8.75,0.36-12.87-6.81-10.04-15.44c1.47-4.48,2.9-8.98,4.34-13.47c-4.36-0.38-8.72-0.86-13.09-1.13
	c-6.85-0.42-13.71-1.11-20.54-0.88c-3.51,0.12-6.96,2.01-10.45,3.06c-1.13,0.34-2.29,0.73-3.44,0.8
	c-28.79,1.52-51.91,25.21-56.54,48.2c-1.22,6.07-1.75,12.29-2.36,18.47c-0.05,0.55,1.93,2.05,2.52,1.83
	c15.37-5.81,30.58-4.01,45.53,1.33c6.62,2.36,12.99,5.7,19.08,9.31c2.58,1.53,3.73,5.52,6.26,7.31c3.95,2.79,8.66,6.83,12.79,6.54
	c30.03-2.12,59.59,4.05,89.39,4.4c16.18,0.19,24.49,7.96,29.3,22.27c1.08,3.22,5.16,7.4,0.27,9.68c-4.82,2.25-4.24-4.14-6.24-6.49
	c-0.89-1.05-1.28-2.58-1.82-3.92c-3.94-9.74-10.07-14.48-21.25-14.52c-18.11-0.07-36.2-2.7-54.33-3.59
	c-11.65-0.57-23.36,0.08-35.05,0.07c-2.68,0-5.36-0.51-8.04-0.79c0.32,3.7,0.79,7.39,0.92,11.1c0.13,3.61,0.76,7.53-0.33,10.78
	C243.06,235.74,237.11,237.94,231.75,237.11z M360.9,116.59c-4.36,0.63-8.73,1.23-13.09,1.93c-0.65,0.11-1.23,0.71-1.85,1.09
	c0.62,0.4,1.2,0.96,1.87,1.18c6.5,2.11,13.02,4.17,19.53,6.22c6.12,1.92,8.17,0.7,10.11-5.19c0.46-1.4,2.31-3.16,3.56-3.19
	c1.27-0.04,3.36,1.61,3.74,2.93c0.78,2.72,0.55,5.74,0.95,8.61c0.42,2.97,0.22,6.63,1.83,8.72c4.13,5.36,4.84,11.54,6.31,17.79
	c1.33,5.64,4.52,10.81,6.97,16.15c0.15,0.33,1.21,0.63,1.45,0.43c4.58-3.8,6.15,1.19,8.88,3.07c8.64,5.96,17.27,11.96,26.18,17.47
	c1.94,1.2,5.01,0.43,7.56,0.57c-1.13-2.04-2.12-4.18-3.42-6.1c-1.15-1.69-2.55-3.23-3.99-4.68c-13.68-13.79-27.41-27.52-41.04-41.35
	c-1.17-1.18-2.78-3.74-2.36-4.37c0.97-1.46,2.97-2.36,4.72-3.01c1.02-0.38,2.46-0.09,3.55,0.33c7.84,3,15.65,6.09,23.45,9.19
	c1.29,0.51,2.5,1.22,3.75,1.84c-0.31-1.52-0.42-3.12-0.98-4.53c-2.27-5.76-4.59-11.51-7.12-17.16c-0.51-1.13-1.92-2.13-3.12-2.57
	c-2.71-0.99-5.82-1.07-8.29-2.43c-8.45-4.66-14.24-12.06-18.52-20.76c-2.7-5.49-6.4-8.16-12.64-6.07
	c-3.42,1.14-7.07,1.77-10.66,2.08c-8.05,0.69-17.43,2.3-22.55-5.09c-4.3-6.21-7.24-5.73-12.2-2.53c-2.03,1.31-4.4,2.03-6.58,3.09
	c-0.7,0.34-1.29,0.89-1.94,1.34c0.67,0.18,1.33,0.48,2.01,0.53c6.88,0.51,11.96,4.24,16.62,9.17c1.54,1.63,4.26,3.1,6.34,2.98
	c7.84-0.45,14.66,2.28,21.17,6.2c1.13,0.68,2.52,3,2.17,3.7c-0.66,1.34-2.41,2.68-3.87,2.92c-2.75,0.46-5.62,0.13-8.44,0.13
	C360.93,117,360.92,116.79,360.9,116.59z M176.45,207.12c0.67,2.51,2.32,6.17,4.21,6.68c13.56,3.67,27.26,6.83,41,9.69
	c2.14,0.45,6.06-0.82,6.9-2.5c2.17-4.31,3.45-9.23,4.36-14.05c0.81-4.31-1.1-7.4-5.57-8.8c-12.28-3.86-24.35-8.52-36.76-11.82
	c-13.89-3.69-14.15-3.07-14.31,12.12C176.28,201.36,175.72,204.42,176.45,207.12z M372.53,86.99c2.98-0.25,4.28-0.9,2.35-4.48
	c-1.47-2.73-1.48-6.28-2.23-9.43c-0.34-1.42-0.82-2.83-1.39-4.18c-1.22-2.92-3.72-5.85-3.58-8.66c0.29-5.64,2.19-11.17,3.01-16.81
	c0.28-1.92-0.7-4.03-1.11-6.06c-0.75,1.44-1.84,2.8-2.2,4.34c-1.18,5.03-1.84,10.2-3.23,15.16c-0.48,1.71-2.84,4.39-3.81,4.17
	c-4.79-1.11-9.61-2.61-14.04-4.78c-5.97-2.92-11.52-6.75-17.42-9.86c-6.21-3.28-6.03-3.04-7.58,4.2
	c-1.53,7.16-1.44,13.45,5.16,18.02c1.13,0.78,2.14,2,2.77,3.26c2.71,5.39,6.22,7.02,11.95,4.28c1.67-0.8,6.14,0.57,6.7,2.02
	c3.49,9.08,3.94,9.68,14.53,9.59C365.3,87.55,368.92,87.29,372.53,86.99z M456.22,197.84c-0.33-0.51-1.95-0.88-2.21-0.59
	c-5.87,6.69-12.86,5.66-20.1,3.33c-0.61-0.19-1.34,0.05-2.02,0.09c0.51,0.6,1.06,1.18,1.53,1.81c3.5,4.73,7.18,9.34,10.36,14.3
	c0.85,1.33,0.14,3.73,0.15,5.64c-1.82-0.01-3.76,0.39-5.45-0.1c-6.56-1.94-13.01-4.28-19.57-6.18c-1.48-0.43-3.27,0.32-4.92,0.53
	c0.97,1.48,1.63,3.57,2.98,4.32c4.06,2.24,8.36,4.03,12.61,5.87c9.88,4.27,11.01,9.73,2.82,16.87c-5.51,4.81-11.76,8.72-17.66,13.05
	c-0.64,0.47-1.22,1.01-1.83,1.51c0.6,0.28,1.19,0.77,1.79,0.79c14.99,0.54,24.24,9.71,31.53,22.01c0.74,1.26,2.29,2.02,3.46,3.01
	c-0.07-1.72,0.35-3.67-0.31-5.11c-3.92-8.64-10.15-14.79-18.92-18.21c-1.82-0.71-3.21-2.62-4.79-3.97c1.51-1.47,2.78-3.68,4.57-4.3
	c8.18-2.83,16.53-5.17,24.76-7.86c0.81-0.26,1.98-2.03,1.76-2.58c-3.88-9.7-3.39-18.92,2.11-27.89c1.14-1.85,1.47-4.23,2.57-7.57
	C459.88,203.95,458.15,200.83,456.22,197.84z M394.95,231.06c6.85,4.11,12.78,8.58,14.76,17.04c0.19,0.79,2.1,1.99,2.38,1.79
	c5.6-4.03,11.12-8.17,16.48-12.54c0.4-0.33-0.2-3.12-1.01-3.64c-1.65-1.05-3.8-1.23-5.68-1.95c-6.35-2.41-12.16-5.5-14.83-12.6
	c-2.62-6.95-0.74-10.57,6.52-10.64c4.72-0.04,9.46,1.37,14.19,2.06c0.94,0.14,1.92-0.06,2.89-0.1c-0.57-0.77-1.02-1.71-1.74-2.29
	c-6.2-4.96-12.51-9.77-18.67-14.79c-2.41-1.96-3.34-1.11-5.46,0.91c-4.8,4.59-9.85,9.83-15.76,12c-5.51,2.01-6.65,4.72-6.48,9.74
	C382.26,224.78,389.26,227.65,394.95,231.06z M240.94,82.49c-4.82-1.97-10-2.99-14.83-4.93c-3.17-1.27-3.91-0.76-4.37,2.71
	c-0.66,4.97-3.62,5.93-6.87,2.24c-3.49-3.97-6.39-8.48-9.56-12.74c-0.82-1.09-2.41-3.1-2.46-3.05c-3.02,2.33-6.21,4.58-8.62,7.5
	c-0.61,0.75,0.75,4.44,2.12,5.51c6.55,5.09,13.31,9.92,20.22,14.48c2.47,1.63,5.9,3.64,8.32,3.03c6.7-1.67,13.11-4.61,19.61-7.1
	c0.86-0.33,1.58-1.01,3.4-2.2C245.07,85.66,243.25,83.43,240.94,82.49z M265.58,97.53c5.21-0.41,10.42-0.99,15.64-1.15
	c1.57-0.05,3.88,0.64,4.53,1.79c0.59,1.03-0.15,4.09-1.15,4.64c-7.1,3.96-6.46,11.96-9.27,18.1c-2.13,4.65,0.3,6.92,4.69,6.39
	c5.36-0.64,10.64-1.99,15.95-3.07c4.47-0.91,3.88-3.5,1.57-6.06c-2.45-2.72-5.74-4.75-7.79-7.71c-1.46-2.11-2.31-5.45-1.83-7.91
	c0.26-1.32,3.85-2.15,6.06-2.77c1.5-0.43,3.28,0.17,4.8-0.22c3.7-0.96,7.32-2.23,10.97-3.4c0.36-0.11,0.66-0.41,0.99-0.62
	c-0.43-0.2-0.83-0.51-1.28-0.59c-7.24-1.27-14.52-3.73-21.71-3.48c-11.01,0.39-21.96,2.64-32.93,4.16
	c-0.93,0.13-1.82,0.63-2.73,0.95c0.86,0.18,1.72,0.49,2.58,0.5c3.63,0.06,7.26,0.02,10.89,0.02
	C265.57,97.25,265.58,97.39,265.58,97.53z M324.49,23.01c-2.06,0.93-3.8,2.63-5.68,4c1.96,1.23,3.87,2.56,5.91,3.64
	c0.85,0.45,2.21,0.03,2.89,0.59c0.98,0.8,2.42,2.68,2.14,3.16c-3.01,5.21,1.66,4.88,4,6.18c3.36,1.87,6.74,3.69,10.13,5.51
	c2.37,1.27,4.77,2.5,7.15,3.74c-0.54-2.36-1.13-4.71-1.59-7.09c-0.43-2.23-0.55-4.54-1.12-6.72c-2.15-8.25-9.57-14.62-17.75-14.58
	C329.14,21.79,326.66,22.03,324.49,23.01z M283.46,35.74c1.27,1.45,2.46,2.98,3.84,4.31c0.86,0.83,1.95,1.48,3.02,2.01
	c4.58,2.29,10.93,2.76,9.97,10.63c-0.05,0.43,0.62,1.29,1.07,1.39c5.93,1.26,6.49,5.42,5.95,10.64c-0.12,1.17,1.72,2.56,2.66,3.85
	c0.55-1.09,1.36-2.12,1.6-3.27c1.58-7.43,3.12-14.88,4.41-22.37c0.13-0.78-1.32-2.48-2.3-2.74c-8.13-2.15-16.31-4.07-24.07-5.96
	C287.12,34.84,285.29,35.29,283.46,35.74z M471.67,294.69c-0.25-1.55-0.51-3.09-0.76-4.64c-2.13,0.51-4.26,1.01-6.4,1.52
	c0.38,1.26,0.99,2.5,1.07,3.78c0.09,1.53,0.11,3.33-0.6,4.53c-0.38,0.64-2.75,0.8-3.59,0.22c-4.97-3.46-4.1,0.29-4.07,3.27
	c0.11,9.52,0.16,19.03,0.28,28.55c0.02,1.3,0.29,2.59,0.44,3.88c0.95-0.99,2.39-1.81,2.79-3c4.17-12.48,8.18-25.02,12.23-37.54
	C472.6,295.07,472.14,294.88,471.67,294.69z M280.72,8.08c-9.02,6.07-18.34,11.77-26.75,18.66c-3.95,3.23,2.96,4.63,3.23,7.65
	c1.16-0.55,2.37-1.02,3.48-1.68c2.35-1.4,4.49-3.45,7.01-4.22c4.67-1.43,15.46-13.97,15.76-20.09
	C282.61,8.28,281.34,7.66,280.72,8.08z M303.32,72.91c-4.68-10.04-7.6-21.47-19.25-26.01c-0.64-0.25-1.35-0.31-2.03-0.46
	c0.13,0.77,0.14,1.58,0.39,2.3c2.32,6.58,5.01,13.05,6.94,19.74c1.31,4.56,3.18,7.13,8.3,6.57
	C299.54,74.34,301.43,73.62,303.32,72.91z M444.12,255.04c-1.42,0.46-2.74,1.22-4.11,1.85c1.03,0.92,2.04,1.85,3.08,2.75
	c7.11,6.25,13.67,12.81,14.39,23.33c0.05,0.75,2.4,2.17,2.92,1.87c1.16-0.66,2.78-2.47,2.55-3.37c-2.14-8.57-4.55-17.08-7.09-25.53
	c-0.43-1.42-1.88-2.51-2.64-3.47C449.5,253.5,446.78,254.18,444.12,255.04z M461.67,229.79c0,0.42-0.11,0.88,0.02,1.24
	c0.91,2.48-1.74,7.18,3.31,7.05c4.86-0.13,4.89-3.44,4.54-7.89c-0.69-8.74-0.53-17.59-0.03-26.36c0.17-2.96,2.09-5.18-1.9-7.31
	c-2.99-1.6-1.54-4.21,0.62-6.56c4.31-4.68,4.28-11.12,0.37-15.04c-0.55-0.55-1.31-0.86-1.98-1.28c-0.2,0.87-0.47,1.73-0.59,2.61
	c-0.68,4.8-0.18,10.31-2.39,14.16c-1.51,2.63-1.47,3.56-0.11,5.4c5.31,7.17,4.37,14.65,1.23,22.35c-1.5,3.69-2.67,7.53-3.99,11.3
	C461.07,229.56,461.37,229.68,461.67,229.79z M463.52,125.5c-7.14-14.65-20.2-21.96-33.72-28.61c-6.73-3.31-7.49-2.93-8.58,4.17
	c-0.33,2.14,0.42,4.46,0.67,6.7c1.99-0.91,5.27-1.37,5.74-2.82c2.72-8.26,7.45-3.74,10.92-1.74c11.5,6.62,20.5,15.73,24.54,29.18
	c0.33,1.08,1.24,1.98,1.88,2.96c0.22-0.91,0.44-1.83,0.82-3.4C465.16,130.08,464.58,127.66,463.52,125.5z M434.48,160.31
	c-6.81-5.69-14.54-10.22-21.94-15.15c-0.57-0.38-1.44-0.3-2.17-0.43c0.3,0.51,0.52,1.12,0.92,1.52
	c8.48,8.54,16.97,17.07,25.49,25.58c0.41,0.41,1.03,0.58,1.55,0.86c0.1-0.57,0.2-1.14,0.33-1.93
	C437.36,167.29,437,162.42,434.48,160.31z M396.43,45.03c-0.54-0.22-2.15,0.65-2.13,0.91c0.63,7.97,1.37,15.93,2.19,23.89
	c0.09,0.83,0.79,1.58,1.21,2.37c0.53-0.57,1.35-1.05,1.56-1.73c1.43-4.68,2.74-9.41,3.76-12.98
	C403.39,50.94,401.31,47.04,396.43,45.03z M317.92,101.43c-0.79,0.32-1.3,1.35-1.94,2.06c0.77,0.52,1.48,1.24,2.33,1.51
	c4.93,1.59,9.86,3.25,14.87,4.5c1.54,0.38,3.36-0.47,5.05-0.76c-0.9-1.63-1.42-3.81-2.76-4.77c-3.05-2.17-6.5-3.73-9.4-5.33
	C322.82,99.72,320.32,100.44,317.92,101.43z M269.69,51.78c2.77,7.05,5.57,14.1,8.73,20.97c0.49,1.07,2.89,1.22,4.41,1.79
	c0.07-0.93,0.47-2.02,0.15-2.77c-3.77-8.84-7.62-17.64-11.53-26.41c-0.41-0.92-1.37-1.59-2.07-2.38c-0.39,0.9-0.78,1.8-1.14,2.62
	C268.74,47.8,268.95,49.9,269.69,51.78z M318.72,116.27c1.81-0.08,3.63-0.15,5.44-0.26c0.8-0.05,1.59-0.19,2.39-0.29
	c-0.74-0.45-1.44-1.08-2.24-1.32c-7.88-2.39-15.77-4.75-23.67-7.04c-1.07-0.31-2.26-0.22-3.39-0.32c0.71,1.15,1.17,2.92,2.17,3.34
	c6.18,2.63,12.48,4.95,18.73,7.38C318.34,117.27,318.53,116.77,318.72,116.27z M387.54,65.61c-2.56,3.17-5.56,6.1-7.38,9.67
	c-0.45,0.88,2.94,3.83,4.56,5.83c2.19-2.01,4.38-4.02,6.66-6.11C389.76,71.07,388.65,68.34,387.54,65.61z M257.74,84.6
	c-1.56,0.34-3.11,0.77-4.66,1.16c1.59,0.59,3.21,1.74,4.76,1.66c5.61-0.29,11.21-0.94,16.79-1.57c1.54-0.17,3.04-0.74,4.56-1.13
	c-0.96-1.46-1.62-3.5-2.96-4.24c-2.52-1.39-5.41-2.07-8.19-2.92c-0.24-0.08-1.13,0.83-1.06,1.1c2.12,8.13-3.91,5.42-6.43,5.92
	C258.94,84.58,258.32,84.47,257.74,84.6z M404.74,77.87c-0.33,1.31-0.82,2.63-0.88,3.96c-0.26,5.99,4.6,7.76,8.36,10.31
	c0.5,0.34,2.14-0.21,2.57-0.84c0.91-1.35,2.27-4,1.86-4.41c-3.45-3.42-7.26-6.45-10.51-9.21C405.1,77.82,404.76,77.8,404.74,77.87z
	 M262.25,76.79c-0.41-0.39-0.76-0.96-1.25-1.16c-7.87-3.25-12.83-9.69-17.36-16.63c-0.39-0.6-1.09-0.99-1.65-1.48
	c-0.03,0.6-0.15,1.21-0.07,1.79c1.54,11.28,7.44,17.25,18.08,17.72C260.33,76.99,261.29,76.89,262.25,76.79z M491.59,186.94
	c-4.1-1.96-8.21-3.91-12.31-5.87c-0.75,2.94-1.79,5.84-2.1,8.83c-0.1,0.92,1.76,2.06,3.34,3.77
	C484.6,191.18,488.1,189.06,491.59,186.94z M392.69,270.77c-4.34,2.58-8.64,5.24-12.91,7.94c-0.64,0.41-1.09,1.14-1.63,1.72
	c2.79,1.04,5.54,2.24,8.39,3.05c1.06,0.3,3.13,0.08,3.41-0.55c1.7-3.72,3.01-7.64,4.72-12.2
	C393.95,270.73,393.17,270.48,392.69,270.77z M455.18,165.2c-3.79-3.68-8.09-6.81-12.21-10.12c-0.99-0.8-2.12-1.42-3.18-2.13
	c0.5,1.49,0.63,3.32,1.57,4.41c5.04,5.83,10.26,11.5,15.47,17.17c0.6,0.66,1.51,1.02,2.27,1.52c0.11-0.81,0.22-1.62,0.55-4.11
	C458.6,170.32,457.33,167.28,455.18,165.2z M415.32,110.18c-1.41-8.22-8.55-10.15-14.17-13.74c-0.27-0.17-0.72-0.05-1.08-0.06
	c0.18,0.52,0.24,1.16,0.57,1.54c4.12,4.79,8.26,9.57,12.46,14.28c0.46,0.52,1.39,0.59,2.1,0.87c0.19-0.56,0.39-1.11,0.53-1.52
	C415.55,110.98,415.39,110.59,415.32,110.18z M235.56,70.63c0.51,0.63,1.79,0.59,2.72,0.86c-0.19-0.92-0.28-1.86-0.58-2.74
	c-1.19-3.52-2.38-7.03-3.68-10.5c-0.77-2.07-1.75-4.05-2.63-6.07c-0.82,2.37-1.65,4.74-3.07,8.84
	C230.52,63.97,232.94,67.38,235.56,70.63z M385.23,194.13c0.54-0.55,1.18-1.02,1.59-1.66c2.11-3.27,4.64-6.39,6.02-9.98
	c0.61-1.59-1.06-4.19-1.91-6.24c-0.37-0.88-1.29-1.5-1.97-2.24c-0.53,1.64-1.22,3.24-1.55,4.92c-0.85,4.25-1.54,8.54-2.35,13.15
	C385.1,192.57,385.17,193.35,385.23,194.13z M262.2,52.4c-0.04-0.1-1.16-0.02-1.2,0.14c-0.82,3.2-2.85,6.88-1.95,9.49
	c0.86,2.51,4.75,3.93,7.38,5.73c0.14,0.1,0.87-0.71,0.88-0.71C265.47,61.72,263.87,57.05,262.2,52.4z M197.61,90.55
	c-2.94-2.71-5.89-5.43-8.94-8c-0.19-0.16-1.92,0.94-1.87,1.27c0.28,1.79,0.42,4.52,1.51,5.09c2.89,1.53,6.25,2.12,9.42,3.06
	c0.07,0.02,0.22-0.22,0.35-0.36C197.93,91.26,197.87,90.79,197.61,90.55z M250.45,37.66c-0.47,3.33-1.39,6.67-1.25,9.97
	c0.09,2.17,1.73,4.27,2.67,6.39c0.32-2.16,0.64-4.32,1.11-7.49C252.29,44.09,251.37,40.87,250.45,37.66z M475.13,217.78
	c0.02,0.42-0.01,0.84,0.06,1.24c0.52,2.99,1.05,5.98,1.58,8.98c0.39-3.29,0.79-6.59,1.17-9.88c0.02-0.2-0.06-0.41-0.12-0.61
	c-0.7-2.29-1.4-4.59-2.11-6.88c-0.32,2.37-0.64,4.73-0.95,7.1C474.88,217.74,475.01,217.76,475.13,217.78z M412.68,66.99
	c-1.68,0.67-3.09,2.06-4.6,3.18c1.78,1.21,3.55,2.42,5.33,3.64c0.6-1.07,1.21-2.13,2.1-3.71C414.4,68.84,413.12,66.81,412.68,66.99z
	 M201.16,53.67c-0.77-0.27-1.99-0.99-2.24-0.73c-2.78,2.89-5.42,5.92-8.06,8.95c-0.1,0.11,0.22,0.6,0.34,0.92
	c3.23-2.29,6.47-4.57,9.7-6.86C200.99,55.19,201.07,54.43,201.16,53.67z M317.73,85.41c-1.74-0.82-3.47-2.25-5.21-2.26
	c-1.25,0-2.5,1.9-3.75,2.95c1.08,0.57,2.17,1.14,3.62,1.91C314.27,87.1,316,86.26,317.73,85.41z M465.2,256.32
	c-0.35,0.69-1.14,1.51-0.99,2.03c0.91,3.1,2.05,6.13,3.11,9.19c0.21-0.82,0.43-1.64,0.89-3.4
	C467.36,261.95,466.28,259.13,465.2,256.32z M329.93,127.66c-2.94-1.28-5.88-2.56-8.85-3.76c-0.09-0.04-0.5,0.76-0.76,1.17
	c2.87,1.32,5.74,2.67,8.64,3.91c0.31,0.13,0.89-0.4,1.35-0.63C330.1,127.96,330.05,127.71,329.93,127.66z M293.25,82.03
	c1.74,0.59,3.45,1.32,5.23,1.71c0.67,0.15,1.51-0.47,2.27-0.74c-1.33-0.59-2.65-1.18-3.82-1.69
	C295.48,81.59,294.37,81.81,293.25,82.03z M167.08,190.96c-0.79-0.36-1.64-1.11-2.36-0.99c-1.26,0.2-2.43,0.93-3.64,1.44
	c0.8,0.26,1.61,0.52,2.85,0.92C164.83,191.93,165.96,191.44,167.08,190.96z M397.91,188.16c-1.13,1.59-2.27,3.17-3.35,4.8
	c-0.03,0.05,0.68,0.84,0.84,0.77c1.84-0.78,3.64-1.65,6.11-2.81C398.63,188.71,398.27,188.43,397.91,188.16z M395.66,81.33
	c-0.8,0.82-1.66,1.6-2.35,2.51c-0.11,0.15,0.66,1.29,0.71,1.26c0.93-0.44,1.81-0.99,2.97-1.66
	C396.37,82.46,396.01,81.9,395.66,81.33z M317.26,72.19c-0.31,0.47-0.96,1.06-0.86,1.39c0.26,0.79,0.88,1.46,1.35,2.18
	c0.34-0.33,0.68-0.66,1.16-1.14C318.28,73.69,317.77,72.94,317.26,72.19z M422.27,80.14c-0.2-0.07-0.54,0.33-0.82,0.52
	c0.39,0.45,0.74,0.93,1.18,1.31c0.07,0.06,0.5-0.32,1.32-0.86C423.28,80.71,422.81,80.32,422.27,80.14z"/>
</svg>
