<?xml version="1.0" encoding="utf-8"?>
<!-- Generator: Adobe Illustrator 24.0.1, SVG Export Plug-In . SVG Version: 6.00 Build 0)  -->
<svg version="1.2" baseProfile="tiny" id="Слой_1"
	 xmlns="http://www.w3.org/2000/svg" xmlns:xlink="http://www.w3.org/1999/xlink" x="0px" y="0px" viewBox="0 0 500 500"
	 xml:space="preserve">
<path fill="#FFFFFF" d="M500,250c0,138.07-111.93,250-250,250S0,388.07,0,250S111.93,0,250,0S500,111.93,500,250z M80.39,330.69
	c0.24,4.26,0.02,8.66,1.05,12.73c3.73,14.6,13.36,23.97,27.25,29.28c3.04,1.16,6.08,1.82,9.4,1.81c20.5-0.07,41.01,0.03,61.52,0.08
	c0.68,0,1.37,0.12,2.05,0.19c58.62,0,117.24,0,175.86,0c2.3-0.09,4.6-0.21,6.91-0.25c5.2-0.09,10.4-0.1,15.61-0.21
	c12.2-0.26,21.99-5.54,29.86-14.61c3.83-4.42,6.79-9.45,8.11-15.14c0.9-3.89,1.1-8,1.19-12.02c1-45.99,0.95-91.99,0.44-137.98
	c-0.13-11.38-0.44-22.76-0.73-34.14c-0.15-6.11-2.66-11.45-5.94-16.39c-5.73-8.65-13.57-14.69-23.7-17.19
	c-3.81-0.94-7.91-0.85-11.88-0.91c-16.36-0.26-32.71-0.51-49.07-0.55c-45.26-0.11-90.52-0.18-135.78-0.11
	c-22.48,0.03-44.97,0.39-67.45,0.62c-3.35,0.03-6.7,0.18-10.05,0.3c-6.94,0.25-12.82,3.27-18.2,7.3
	c-7.74,5.79-13.14,13.35-15.41,22.78c-0.88,3.66-0.81,7.56-1.01,11.35c-0.22,4.32-0.26,8.65-0.38,12.97c0,46.23,0,92.46,0,138.7
	C80.14,323.09,80.18,326.89,80.39,330.69z M121.84,181.81c33.34,25.16,66.66,50.36,100.02,75.49c9.14,6.88,18.42,13.57,27.59,20.4
	c1.2,0.89,2.05,0.96,3.32,0.07c18.25-12.8,36.59-25.5,54.82-38.33c26.27-18.48,52.47-37.06,78.71-55.59
	c0.41-0.29,0.85-0.53,1.51-0.95c0.05,0.9,0.12,1.57,0.12,2.24c0.02,46.87,0.05,93.73,0.05,140.6c0,2.66-0.13,5.32-0.34,7.97
	c-0.11,1.36-0.42,2.74-0.85,4.04c-1.21,3.72-4.39,4.31-7.64,4.42c-11.49,0.4-22.99,0.96-34.48,0.98
	c-62.84,0.09-125.68,0.07-188.52,0c-10.63-0.01-21.27-0.38-31.9-0.65c-2.01-0.05-4.03-0.31-6.03-0.64
	c-3.73-0.61-5.49-2.51-5.59-6.33c-0.29-11.03-0.63-22.06-0.65-33.1c-0.08-41.61-0.04-83.22-0.04-124.82c0-0.85,0-1.7,0-2.56
	c0.16-0.08,0.32-0.16,0.48-0.24C115.56,177.14,118.72,179.45,121.84,181.81z M367.67,157.32c0.04,0.17,0.08,0.33,0.13,0.5
	c-0.85,0.64-1.69,1.29-2.56,1.91c-33.15,23.45-66.29,46.9-99.47,70.31c-4.43,3.13-9.07,5.96-13.58,8.98
	c-0.93,0.62-1.58,0.51-2.45-0.14c-24.13-18.27-48.29-36.51-72.43-54.76c-11.15-8.43-22.28-16.89-33.42-25.33
	c-0.44-0.34-0.87-0.7-1.31-1.05c0.06-0.15,0.11-0.3,0.17-0.44C217.71,156.69,292.69,156.62,367.67,157.32z"/>
</svg>
