<?xml version="1.0" encoding="utf-8"?>
<!-- Generator: Adobe Illustrator 24.0.1, SVG Export Plug-In . SVG Version: 6.00 Build 0)  -->
<svg version="1.2" baseProfile="tiny" id="Слой_1"
	 xmlns="http://www.w3.org/2000/svg" xmlns:xlink="http://www.w3.org/1999/xlink" x="0px" y="0px" viewBox="0 0 500 500"
	 xml:space="preserve">
<g>
	<path fill="#FFFFFF" d="M466.46,124.63c-22.36-38.3-52.68-68.63-90.98-90.98C337.18,11.29,295.36,0.12,250,0.12
		c-45.36,0-87.19,11.18-125.49,33.53C86.21,56,55.88,86.32,33.53,124.63C11.18,162.93,0,204.76,0,250.11
		c0,54.48,15.89,103.46,47.69,146.97c31.79,43.51,72.86,73.62,123.21,90.33c5.86,1.09,10.2,0.32,13.02-2.28
		c2.82-2.6,4.23-5.86,4.23-9.76c0-0.65-0.06-6.51-0.16-17.58c-0.11-11.07-0.16-20.73-0.16-28.97l-7.49,1.3
		c-4.77,0.87-10.8,1.25-18.07,1.14c-7.27-0.1-14.81-0.86-22.62-2.28c-7.81-1.4-15.08-4.66-21.81-9.76
		c-6.72-5.1-11.5-11.78-14.32-20.02l-3.26-7.49c-2.17-4.99-5.59-10.53-10.25-16.6c-4.67-6.08-9.39-10.2-14.16-12.37l-2.28-1.63
		c-1.52-1.08-2.93-2.39-4.23-3.91c-1.3-1.52-2.28-3.04-2.93-4.56c-0.65-1.52-0.11-2.77,1.63-3.75s4.88-1.45,9.44-1.45l6.51,0.97
		c4.34,0.87,9.71,3.47,16.11,7.81c6.4,4.34,11.66,9.98,15.79,16.92c4.99,8.9,11.01,15.68,18.07,20.35c7.05,4.67,14.16,7,21.32,7
		c7.16,0,13.34-0.54,18.55-1.62c5.2-1.09,10.09-2.72,14.65-4.89c1.95-14.55,7.27-25.72,15.95-33.53
		c-12.37-1.3-23.49-3.26-33.36-5.86c-9.87-2.61-20.07-6.84-30.6-12.7c-10.53-5.86-19.26-13.13-26.21-21.81
		c-6.94-8.68-12.64-20.08-17.09-34.18c-4.45-14.11-6.67-30.38-6.67-48.83c0-26.26,8.57-48.61,25.72-67.06
		c-8.03-19.74-7.27-41.88,2.28-66.4c6.29-1.96,15.63-0.49,27.99,4.39c12.37,4.88,21.43,9.07,27.18,12.53
		c5.75,3.47,10.36,6.41,13.84,8.79c20.19-5.64,41.02-8.46,62.5-8.46s42.32,2.82,62.51,8.46l12.37-7.81
		c8.46-5.21,18.45-9.99,29.94-14.33c11.5-4.34,20.3-5.53,26.38-3.58c9.76,24.52,10.63,46.66,2.6,66.4
		c17.14,18.45,25.72,40.8,25.72,67.06c0,18.45-2.23,34.77-6.67,48.99c-4.45,14.22-10.19,25.6-17.24,34.18
		c-7.06,8.57-15.85,15.79-26.37,21.65c-10.53,5.86-20.73,10.09-30.6,12.7c-9.88,2.61-21,4.57-33.36,5.87
		c11.28,9.76,16.92,25.17,16.92,46.22v68.68c0,3.9,1.36,7.16,4.07,9.76c2.71,2.6,7,3.36,12.86,2.27
		c50.35-16.71,91.42-46.82,123.21-90.33C484.1,353.56,500,304.57,500,250.1C499.99,204.75,488.81,162.93,466.46,124.63z"/>
</g>
</svg>
