<?xml version="1.0" encoding="utf-8"?>
<!-- Generator: Adobe Illustrator 24.0.1, SVG Export Plug-In . SVG Version: 6.00 Build 0)  -->
<svg version="1.2" baseProfile="tiny" id="Слой_1"
	 xmlns="http://www.w3.org/2000/svg" xmlns:xlink="http://www.w3.org/1999/xlink" x="0px" y="0px" viewBox="0 0 500 500"
	 xml:space="preserve">
<path fill="#FFFFFF" d="M500,250c0,138.07-111.93,250-250,250S0,388.07,0,250S111.93,0,250,0S500,111.93,500,250z M140.97,210.2
	c0-26.03,0.01-52.06-0.01-78.09c0-1.52,0.66-3.32-2.23-3.29c-12.08,0.13-24.15,0.08-36.23,0.02c-1.61-0.01-2.35,0.45-2.16,2.1
	c0.05,0.41,0.01,0.83,0.01,1.25c0,71.94,0.01,143.89-0.06,215.83c0,2.58,0.58,3.3,3.22,3.26c11.45-0.16,22.91-0.17,34.36,0.01
	c2.75,0.04,3.17-0.85,3.16-3.32c-0.09-25.09-0.1-50.18-0.03-75.27c0.02-7.17,0.36-14.33,1.55-21.44
	c3.09-18.48,15.24-28.66,33.71-28.13c11.98,0.35,20.6,8.33,21.9,20.15c0.8,7.25,1.09,14.52,1.1,21.8
	c0.06,27.69,0.05,55.39-0.02,83.08c-0.01,2.33,0.43,3.16,2.99,3.12c11.55-0.16,23.11-0.16,34.67,0c2.67,0.04,3.18-0.73,3.17-3.26
	c-0.09-30.09-0.05-60.18-0.07-90.27c0-8.12-0.23-16.24-1.28-24.29c-1.55-11.77-5.42-22.73-15.1-30.16
	c-18.27-14.04-38.42-15.59-59.44-6.96c-8.99,3.69-16.13,10.11-23.2,18.14C140.97,212.43,140.97,211.32,140.97,210.2z M300.72,211.82
	c0-26.65-0.02-53.31,0.04-79.96c0.01-2.18-0.31-3.07-2.83-3.04c-11.66,0.15-23.32,0.14-34.98,0.01c-2.41-0.03-2.9,0.71-2.9,2.99
	c0.06,72.15,0.06,144.31-0.01,216.46c0,2.58,0.81,3.03,3.15,3c11.45-0.11,22.91-0.14,34.36,0.01c2.57,0.03,3.25-0.57,3.24-3.2
	c-0.11-25.61-0.11-51.23-0.04-76.84c0.02-6.97,0.53-13.91,1.74-20.79c3.14-17.86,15.26-27.79,33.4-27.32
	c11.58,0.3,19.86,7.36,21.77,18.81c1.46,8.75,1.33,17.62,1.35,26.46c0.06,26.65,0.05,53.31-0.03,79.96
	c-0.01,2.33,0.56,2.95,2.92,2.92c11.35-0.14,22.7-0.17,34.04,0.01c2.92,0.05,3.81-0.54,3.79-3.66c-0.14-26.45-0.08-52.89-0.08-79.34
	c0-10.82,0.17-21.64-0.93-32.43c-1.21-11.91-4.79-22.87-13.76-31.23c-16.52-15.38-45.22-17.8-65.87-5.87
	c-6.83,3.95-12.56,9.19-18.38,15.69C300.72,213.01,300.72,212.41,300.72,211.82z"/>
</svg>
