<?xml version="1.0" encoding="utf-8"?>
<!-- Generator: Adobe Illustrator 24.0.1, SVG Export Plug-In . SVG Version: 6.00 Build 0)  -->
<svg version="1.2" baseProfile="tiny" id="Слой_1"
	 xmlns="http://www.w3.org/2000/svg" xmlns:xlink="http://www.w3.org/1999/xlink" x="0px" y="0px" viewBox="0 0 500 500"
	 xml:space="preserve">
<path fill="#FFFFFF" d="M500,250c0,138.07-111.93,250-250,250S0,388.07,0,250S111.93,0,250,0S500,111.93,500,250z M280.37,199.41
	c0.51-5.24-1.43-6.62-6.52-6.47c-12.49,0.36-25.02,0.64-37.48-0.08c-7.59-0.44-9.08,2.08-9.06,9.22
	c0.15,48.59-0.13,97.17-0.43,145.76c-0.03,4.23,1.01,5.93,5.52,5.85c13.6-0.23,27.23-0.41,40.82,0.07c6.11,0.21,7.23-1.96,7.18-7.55
	c-0.28-26.93-0.18-53.87-0.07-80.81c0.02-4.13,0.32-8.36,1.27-12.36c3.08-12.99,15.34-22.29,28.66-22.16
	c13.57,0.13,21.73,7.17,25.48,21.74c1.19,4.65,1.19,9.34,1.19,14.05c0.02,26.66,0.14,53.32-0.1,79.98
	c-0.05,5.31,1.23,7.26,6.89,7.09c13.6-0.41,27.21-0.26,40.82-0.06c4.11,0.06,5.87-0.83,5.83-5.44c-0.28-32.49,0.61-65.01-0.69-97.45
	c-0.96-23.81-9.9-44.52-33.06-55.74c-26.58-12.88-53.57-6.1-76.34,20.02C280.28,208.65,279.93,203.99,280.37,199.41z M144.06,346.63
	c-0.05,5.2,1.1,7.32,6.86,7.13c13.3-0.45,26.63-0.31,39.94-0.05c4.57,0.09,6.2-1.05,6.19-5.94c-0.17-49.66-0.17-99.32,0-148.97
	c0.02-5.02-1.9-5.9-6.3-5.82c-13.03,0.23-26.09,0.5-39.11-0.09c-6.7-0.3-7.67,2.29-7.6,8.1c0.28,24.13,0.12,48.27,0.12,72.41
	C144.16,297.8,144.28,322.22,144.06,346.63z M200.69,143.09c0.01-16.2-12.63-28.11-29.79-28.08c-17.29,0.03-30.02,11.83-30.05,27.84
	c-0.03,15.8,12.27,27.3,29.32,27.43C187.77,170.41,200.68,158.9,200.69,143.09z"/>
</svg>
