<svg xmlns="http://www.w3.org/2000/svg" viewBox="0 0 500 500"><defs><style>.a{fill:#fff;}</style></defs><title>telegram</title><path class="a" d="M500,246.31c0,36.73-6.73,68.36-19.24,98.82a258,258,0,0,1-47.58,75.19c-19.06,21.13-41.68,37.6-66.86,50.64a260.35,260.35,0,0,1-68.49,24.28,239.67,239.67,0,0,1-64,4.2C198,497,164.33,487,132.61,470.31a249.27,249.27,0,0,1-63.16-47A234.06,234.06,0,0,1,29.83,367.8,263.43,263.43,0,0,1,5,299.05,234.11,234.11,0,0,1,.23,240.84c2.4-53.5,20.33-101.36,52.4-144.09,20.62-27.47,46.31-49,76.46-65.28a265.09,265.09,0,0,1,65.25-25A240.27,240.27,0,0,1,262.9.35c37,2,71.69,12.17,104.44,29.27a254.31,254.31,0,0,1,59.18,43c7.93,7.67,14.75,16.36,21.29,25.25a301.42,301.42,0,0,1,32.05,55A230,230,0,0,1,494.35,198,236.27,236.27,0,0,1,500,246.31ZM246,330c.37.25.63.42.88.61q29.47,21.87,58.93,43.76a26.62,26.62,0,0,0,9,4.4c6.24,1.69,10.82-.28,13.57-6.13a37.54,37.54,0,0,0,2.61-7.9c3.53-16.24,6.94-32.52,10.4-48.78q8.58-40.41,17.17-80.83,6.82-32.1,13.67-64.2a23.08,23.08,0,0,0,.06-11.35c-1.72-5.94-6.69-9.47-12.51-8.76a22.36,22.36,0,0,0-5.33,1.38q-55.83,21.5-111.63,43.06-57.51,22.2-115,44.39-9.36,3.62-18.61,7.5a13.41,13.41,0,0,0-6.34,5.07c-2.64,4.13-1.8,7.64,2.61,9.79a46.71,46.71,0,0,0,6.72,2.31q29.82,9.15,59.64,18.29a2.38,2.38,0,0,0,2.25-.3c2.45-1.6,4.94-3.12,7.42-4.68L315.4,193.39a38.7,38.7,0,0,1,3.82-2.26,6.56,6.56,0,0,1,5.12-.38,1.57,1.57,0,0,1,1,2.54,12.84,12.84,0,0,1-2.11,2.43q-38.15,34.89-76.32,69.76-19,17.38-38,34.8a2.66,2.66,0,0,0-.86,1.54c-.33,3.27-.56,6.54-.82,9.82q-1.87,24.15-3.77,48.29c-.12,1.65-.22,3.29-.34,5.08a21.78,21.78,0,0,0,2.29-.26c4.41-.93,8-3.37,11.26-6.35,4.36-4,8.56-8.23,12.83-12.36Z" transform="translate(0 0)"/></svg>