<svg xmlns="http://www.w3.org/2000/svg" viewBox="0 0 500 500"><defs><style>.a{fill:#fff;}</style></defs><title>vk</title><path class="a" d="M249.53,500C112,501-3.08,385.79.06,244.27,3.06,109.3,116-3.34,256.43.08,390.22,3.33,500.23,113.68,500,249.25,499.76,389.15,389.23,500,249.53,500ZM101.18,169.69H78.13c-.64,0-1.29,0-1.92,0-11.51.92-14.68,5.35-10,15.55,19.61,43.18,41.53,85,70.62,122.81,31.31,40.65,71.83,60.32,123.48,55.8,8.37-.74,12.93-4.29,13.27-13.06a90.76,90.76,0,0,1,2.11-17.1c1.54-6.54,3.51-13.7,10.9-15.82,7.21-2.07,12,3.6,16.4,8,8.6,8.59,16.55,17.81,24.95,26.6,6.62,6.94,14.89,12.08,24.33,12.28,19.16.39,38.42,1,57.51-1.34,11.43-1.39,15.08-9,10-19.36C414.32,333,406.09,324,397.51,315.34c-9-9.07-18.57-17.65-27.39-26.92-8.44-8.86-8.69-13.59-1.92-23.84,4.22-6.4,9.07-12.38,13.66-18.54,13.76-18.45,28.93-36,37.92-57.53,5.53-13.23,1.74-18.76-12.46-18.78-18.24,0-36.49.76-54.71.22-9.66-.28-14.54,3.57-17.82,12.26a242.76,242.76,0,0,1-36,64.22c-4.68,6-9.25,15.87-18.31,12.4-8.29-3.16-7.42-13.31-7.32-21.3.22-18.23,1.1-36.46,1-54.69-.1-14.74-4.59-19.28-19.26-21.07a218.13,218.13,0,0,0-52.64.23c-6.37.76-12.46,2.87-17.06,7.94-3,3.33-2.85,5.64,1.82,6.57,12.91,2.54,16.25,12.06,17.07,23.35.53,7.33,1.4,14.71,1,22-.5,10.17.16,20.54-3.18,30.41-3,9-8.49,10.46-15.83,4.13-4.88-4.2-8.75-9.3-12.39-14.6A323.74,323.74,0,0,1,141,181.14c-3.37-8.23-9.11-11.88-17.76-11.76-7.36.11-14.72,0-22.08,0Z" transform="translate(0 0)"/></svg>